<svg xmlns="http://www.w3.org/2000/svg" viewBox="0 0 33.293 33.293" width="512" height="512"><g fill="#fe4325"><path d="M16.646 24.786a.5.5 0 0 1-.5-.5l.001-11.279a.5.5 0 0 1 1 0l-.001 11.279a.5.5 0 0 1-.5.5z"/><path d="M16.646 24.786a.502.502 0 0 1-.354-.146l-4.313-4.313a.5.5 0 0 1 .707-.707l3.959 3.959 3.959-3.959a.5.5 0 0 1 .707.707l-4.313 4.313a.494.494 0 0 1-.352.146z"/><path d="M27.578 33.293H5.715a2.503 2.503 0 0 1-2.5-2.5V2.5c0-1.379 1.122-2.5 2.5-2.5h15.877a.5.5 0 0 1 0 1H5.715c-.827 0-1.5.673-1.5 1.5v28.293c0 .827.673 1.5 1.5 1.5h21.863c.827 0 1.5-.673 1.5-1.5V8.704a.5.5 0 0 1 1 0v22.09a2.502 2.502 0 0 1-2.5 2.499z"/><path d="M29.578 9.204h-7.986a.5.5 0 0 1-.5-.5V.717a.5.5 0 0 1 1 0v7.486h7.486a.5.5 0 0 1 0 1.001z"/><path d="M29.578 9.204a.5.5 0 0 1-.358-.151L21.234.85a.5.5 0 0 1 .717-.697l7.986 8.203a.5.5 0 0 1-.359.848z"/></g></svg>