<svg xmlns="http://www.w3.org/2000/svg" viewBox="0 0 223.041 223.041" width="512" height="512"><g fill="#fe4325"><path d="M111.524 0C50.457 0 .774 46.954.774 104.669c0 31.077 14.472 60.346 39.705 80.3a7.498 7.498 0 0 0 10.535-1.23 7.5 7.5 0 0 0-1.23-10.535c-21.613-17.092-34.01-42.072-34.01-68.534 0-49.445 42.953-89.67 95.75-89.67 52.793 0 95.743 40.225 95.743 89.669 0 49.448-42.95 89.678-95.743 89.678a101.97 101.97 0 0 1-27.076-3.635 7.5 7.5 0 0 0-5.688.705l-31.064 17.597a7.5 7.5 0 0 0 7.392 13.052l28.42-16.099a117.168 117.168 0 0 0 28.016 3.38c61.064 0 110.743-46.958 110.743-104.678C222.267 46.954 172.588 0 111.524 0z"/><path d="M114.67 71.85a7.498 7.498 0 0 0-8.002 1.083l-57.89 49.056a7.5 7.5 0 1 0 9.697 11.443l45.541-38.591v35.852a7.5 7.5 0 0 0 12.349 5.722l57.895-49.056a7.5 7.5 0 0 0-9.697-11.445l-45.547 38.593V78.655a7.496 7.496 0 0 0-4.346-6.805z"/></g></svg>